<svg xmlns="http://www.w3.org/2000/svg" viewBox="0 0 900 1100" role="img" aria-labelledby="title desc">
  <title id="title">个人头像占位图</title><desc id="desc">上传个人照片后替换本文件</desc>
  <defs><linearGradient id="bg" x1="0" y1="0" x2="1" y2="1"><stop stop-color="#6550ff"/><stop offset=".48" stop-color="#3478ff"/><stop offset="1" stop-color="#24c8d8"/></linearGradient><filter id="blur"><feGaussianBlur stdDeviation="45"/></filter></defs>
  <rect width="900" height="1100" fill="#11162e"/><circle cx="710" cy="210" r="270" fill="#24c8d8" opacity=".4" filter="url(#blur)"/><circle cx="180" cy="880" r="260" fill="#ff687c" opacity=".3" filter="url(#blur)"/>
  <path d="M160 1070c28-250 137-374 290-374s262 124 290 374" fill="url(#bg)"/><circle cx="450" cy="448" r="210" fill="#eef1ff" opacity=".92"/><path d="M271 427c8-151 75-239 187-239 123 0 180 94 173 245-40-68-118-115-207-115-61 0-113 25-153 109Z" fill="#1b2140"/>
  <circle cx="384" cy="448" r="10" fill="#555f89"/><circle cx="520" cy="448" r="10" fill="#555f89"/><path d="M395 546c38 24 78 24 115 0" fill="none" stroke="#8b91ac" stroke-width="10" stroke-linecap="round"/>
  <g fill="#fff"><text x="54" y="76" font-family="Arial,sans-serif" font-size="22" font-weight="700" letter-spacing="5">PROFILE PLACEHOLDER</text><text x="450" y="1015" text-anchor="middle" font-family="Arial,sans-serif" font-size="22" font-weight="700" letter-spacing="4">REPLACE WITH YOUR PHOTO</text></g>
</svg>
